<?xml version="1.0" standalone="no"?>
<!DOCTYPE svg PUBLIC "-//W3C//DTD SVG 20010904//EN"
 "http://www.w3.org/TR/2001/REC-SVG-20010904/DTD/svg10.dtd">
<svg version="1.0" xmlns="http://www.w3.org/2000/svg"
 width="700.000000pt" height="700.000000pt" viewBox="0 0 700.000000 700.000000"
 preserveAspectRatio="xMidYMid meet">
<metadata>
Created by potrace 1.14, written by Peter Selinger 2001-2017
</metadata>
<g transform="translate(0.000000,700.000000) scale(0.100000,-0.100000)"
fill="#000000" stroke="none">
<path d="M3307 6989 c-230 -34 -432 -114 -647 -255 -58 -38 -109 -72 -115 -77
-9 -7 -154 -105 -760 -513 -126 -86 -338 -228 -470 -317 -132 -90 -346 -234
-475 -321 -129 -87 -264 -182 -300 -211 -164 -132 -301 -305 -390 -491 -56
-118 -56 -118 -80 -199 -73 -246 -69 -140 -66 -1830 2 -1137 5 -1522 14 -1560
7 -27 15 -63 18 -78 26 -146 155 -427 254 -551 118 -148 224 -248 362 -339
163 -109 375 -196 538 -222 19 -3 60 -10 90 -15 33 -5 936 -8 2250 -6 2012 2
2202 3 2277 19 342 71 639 244 847 497 97 118 131 170 195 302 68 141 91 205
123 344 l22 99 3 1520 c2 1490 1 1522 -18 1625 -43 218 -120 405 -241 582 -66
96 -202 244 -277 301 l-44 33 -2 580 c-1 525 -2 583 -18 618 -105 239 -433
243 -541 7 -19 -44 -20 -66 -22 -421 -1 -206 -3 -376 -3 -378 -1 -3 -281 185
-721 483 -633 429 -886 595 -969 635 -92 46 -252 104 -316 115 -40 7 -75 14
-105 21 -43 10 -352 12 -413 3z m-296 -2604 c163 -27 328 -95 430 -176 20 -16
42 -29 48 -29 7 0 35 18 64 39 100 76 274 146 412 166 103 15 258 12 351 -5
335 -66 617 -327 727 -676 14 -44 28 -98 31 -120 4 -22 9 -51 11 -64 8 -35 7
-206 0 -265 -55 -445 -443 -986 -1105 -1541 -159 -133 -233 -176 -348 -204
-165 -39 -370 1 -499 96 -36 27 -142 113 -153 124 -3 3 -21 18 -40 34 -135
111 -402 371 -515 501 -38 44 -71 82 -75 85 -19 15 -169 224 -221 307 -233
374 -296 704 -197 1038 82 280 300 527 558 632 92 38 140 51 216 59 33 4 61 8
63 10 5 5 202 -4 242 -11z"/>
<path d="M2781 3808 c-223 -34 -365 -309 -290 -562 48 -161 179 -373 363 -586
128 -147 547 -538 617 -575 23 -12 29 -12 45 3 10 9 39 33 64 52 120 94 377
337 521 495 176 193 331 435 381 594 22 70 29 193 15 266 -20 109 -115 237
-207 282 -64 31 -82 35 -163 35 -200 1 -323 -95 -342 -265 -3 -29 -8 -69 -10
-90 -19 -165 -201 -283 -365 -237 -60 16 -128 67 -160 117 -36 56 -47 94 -55
183 -8 86 -21 126 -59 177 -64 86 -212 133 -355 111z"/>
</g>
</svg>
